<svg width="20" height="20" viewBox="0 0 20 20" fill="none" xmlns="http://www.w3.org/2000/svg">
<path fill-rule="evenodd" clip-rule="evenodd" d="M14.934 0.621155C13.771 0.14049 12.5129 -0.0657894 11.2574 0.0183204C10.0018 0.10243 8.78247 0.474668 7.694 1.10616L8.698 2.83616C9.72945 2.2373 10.9119 1.94898 12.1032 2.00582C13.2946 2.06267 14.4442 2.46226 15.4139 3.1566C16.3837 3.85094 17.1323 4.81049 17.57 5.91999C18.0076 7.0295 18.1156 8.24176 17.881 9.41115C17.6952 10.3445 17.2972 11.2226 16.7177 11.9774C16.1381 12.7323 15.3927 13.3436 14.539 13.7642C13.6853 14.1841 12.7464 14.4018 11.795 14.4002H9.395V16.4002H17.99V17.2002C17.99 17.4123 17.9057 17.6158 17.7557 17.7658C17.6057 17.9159 17.4022 18.0002 17.19 18.0002H9.396V20.0002H17.191C17.5587 20.0003 17.9228 19.9279 18.2625 19.7873C18.6022 19.6466 18.9109 19.4403 19.1708 19.1803C19.4308 18.9202 19.6369 18.6115 19.7775 18.2717C19.9181 17.932 19.9903 17.5678 19.99 17.2002V14.4002H17.168C18.332 13.3924 19.1887 12.0773 19.6402 10.6054C20.0917 9.13352 20.1197 7.56423 19.721 6.07715C19.3953 4.86136 18.7941 3.73686 17.964 2.79073C17.1338 1.84461 16.0971 1.10225 14.934 0.621155ZM6.797 1.76415L1.199 0.0141548V6.00015H0V20.0002H7.996V6.00015H6.797V1.76415ZM4.797 6.00015H3.2V2.73516L4.798 3.23516L4.797 6.00015ZM2 18.0002V16.4002H5.996V18.0002H2ZM5.996 8.00015V14.4002H2V8.00015H5.996Z" fill="#0E0E0F"/>
</svg>
