<svg width="19" height="20" viewBox="0 0 19 20" fill="none" xmlns="http://www.w3.org/2000/svg">
<path fill-rule="evenodd" clip-rule="evenodd" d="M10.8 0H9.8V7.2H3.4V5.8C3.4 4.89826 3.04179 4.03346 2.40416 3.39584C1.76654 2.75821 0.901736 2.4 0 2.4V4.4C0.371303 4.4 0.727399 4.5475 0.98995 4.81005C1.2525 5.0726 1.4 5.4287 1.4 5.8V9.4C1.4 10.0041 1.51898 10.6022 1.75015 11.1603C1.98133 11.7184 2.32016 12.2255 2.74731 12.6527C3.17446 13.0798 3.68156 13.4187 4.23966 13.6498C4.79775 13.881 5.39592 14 6 14H14.4C15.0041 14 15.6022 13.881 16.1603 13.6498C16.7184 13.4187 17.2255 13.0798 17.6527 12.6527C18.0798 12.2255 18.4187 11.7184 18.6498 11.1603C18.881 10.6022 19 10.0041 19 9.4V8.3C19 8.266 18.999 8.233 18.996 8.2H19C19 6.02523 18.1361 3.93952 16.5983 2.40172C15.0605 0.863926 12.9748 0 10.8 0ZM16.92 7.2C16.7105 5.91792 16.1035 4.73403 15.1848 3.81553C14.2661 2.89702 13.0821 2.29028 11.8 2.081V7.201L16.92 7.2ZM3.4 9.2V9.4C3.4 10.0896 3.67393 10.7509 4.16152 11.2385C4.64912 11.7261 5.31044 12 6 12H14.4C15.0896 12 15.7509 11.7261 16.2385 11.2385C16.7261 10.7509 17 10.0896 17 9.4V9.2H3.4ZM5.8 17.2C5.8 16.9878 5.88429 16.7843 6.03432 16.6343C6.18434 16.4843 6.38783 16.4 6.6 16.4C6.81217 16.4 7.01566 16.4843 7.16569 16.6343C7.31571 16.7843 7.4 16.9878 7.4 17.2C7.4 17.4122 7.31571 17.6157 7.16569 17.7657C7.01566 17.9157 6.81217 18 6.6 18C6.38783 18 6.18434 17.9157 6.03432 17.7657C5.88429 17.6157 5.8 17.4122 5.8 17.2ZM6.6 14.4C6.2323 14.4 5.8682 14.4724 5.52849 14.6131C5.18877 14.7539 4.8801 14.9601 4.6201 15.2201C4.3601 15.4801 4.15385 15.7888 4.01314 16.1285C3.87242 16.4682 3.8 16.8323 3.8 17.2C3.8 17.5677 3.87242 17.9318 4.01314 18.2715C4.15385 18.6112 4.3601 18.9199 4.6201 19.1799C4.8801 19.4399 5.18877 19.6461 5.52849 19.7869C5.8682 19.9276 6.2323 20 6.6 20C7.34261 20 8.0548 19.705 8.5799 19.1799C9.105 18.6548 9.4 17.9426 9.4 17.2C9.4 16.4574 9.105 15.7452 8.5799 15.2201C8.0548 14.695 7.34261 14.4 6.6 14.4ZM13.8 16.4C13.5878 16.4 13.3843 16.4843 13.2343 16.6343C13.0843 16.7843 13 16.9878 13 17.2C13 17.4122 13.0843 17.6157 13.2343 17.7657C13.3843 17.9157 13.5878 18 13.8 18C14.0122 18 14.2157 17.9157 14.3657 17.7657C14.5157 17.6157 14.6 17.4122 14.6 17.2C14.6 16.9878 14.5157 16.7843 14.3657 16.6343C14.2157 16.4843 14.0122 16.4 13.8 16.4ZM11 17.2C11 16.4574 11.295 15.7452 11.8201 15.2201C12.3452 14.695 13.0574 14.4 13.8 14.4C14.5426 14.4 15.2548 14.695 15.7799 15.2201C16.305 15.7452 16.6 16.4574 16.6 17.2C16.6 17.9426 16.305 18.6548 15.7799 19.1799C15.2548 19.705 14.5426 20 13.8 20C13.0574 20 12.3452 19.705 11.8201 19.1799C11.295 18.6548 11 17.9426 11 17.2Z" fill="#0E0E0F"/>
</svg>
