<svg width="20" height="20" viewBox="0 0 20 20" fill="none" xmlns="http://www.w3.org/2000/svg">
<path fill-rule="evenodd" clip-rule="evenodd" d="M9.892 0H10C15.523 0 20 4.477 20 10C20 10.2232 19.9927 10.4463 19.978 10.669C19.634 15.879 15.298 20 10 20C4.477 20 3.41767e-06 15.523 3.41767e-06 10C-0.00128923 8.43753 0.364117 6.89656 1.06683 5.50102C1.76955 4.10549 2.78996 2.89435 4.046 1.965C5.73755 0.707839 7.78454 0.0201423 9.892 0.0010004V0ZM3.052 6.03C2.36024 7.23858 1.9975 8.60745 2 10C2 10.388 2.028 10.769 2.08 11.142C2.78548 11.3456 3.51574 11.4506 4.25 11.454L4.383 11.447C3.48722 9.78379 3.02952 7.91995 3.053 6.031L3.052 6.03ZM2.724 13.33C3.097 14.145 3.604 14.886 4.215 15.526C7.235 15.586 9.179 15.134 10.518 14.4C11.62 13.795 12.386 12.959 13.018 11.896C12.1855 11.4519 11.2796 11.1619 10.344 11.04C9.23829 12.0039 7.93108 12.7084 6.518 13.102C6.3794 13.1748 6.22556 13.2139 6.069 13.216C5.47795 13.3506 4.87572 13.4303 4.27 13.454C3.75223 13.4529 3.23533 13.4115 2.724 13.33ZM7.011 17.423C7.96108 17.8054 8.97588 18.0012 10 18C11.1688 18.0011 12.3237 17.7456 13.3829 17.2514C14.4421 16.7572 15.3799 16.0364 16.13 15.14C15.8112 14.4781 15.4027 13.8633 14.916 13.313C14.8303 13.226 14.7427 13.1409 14.653 13.058C13.9 14.285 12.919 15.363 11.48 16.153C10.287 16.807 8.831 17.236 7.011 17.423ZM17.334 13.203C17.649 12.481 17.861 11.705 17.951 10.892C16.101 8.591 14.538 7.391 13.142 6.819C11.995 6.349 10.888 6.272 9.705 6.439C9.845 7.354 10.147 8.24 10.601 9.057C12.0738 9.24829 13.484 9.77069 14.726 10.585C14.8681 10.6419 14.9956 10.7301 15.099 10.843C15.5625 11.1789 15.9959 11.5547 16.394 11.966C16.74 12.353 17.054 12.768 17.334 13.203ZM17.612 7.531C17.1125 5.99352 16.1593 4.64329 14.8777 3.65799C13.5961 2.6727 12.0462 2.09851 10.432 2.011C10.0946 2.66317 9.84862 3.35871 9.701 4.078C9.68339 4.19465 9.66839 4.31168 9.656 4.429C11.029 4.264 12.432 4.366 13.901 4.969C15.124 5.469 16.346 6.299 17.612 7.531ZM8.16 2.213C7.9749 2.7133 7.8301 3.22761 7.727 3.751C7.64157 4.30742 7.6041 4.87016 7.615 5.433C7.58274 5.59159 7.5896 5.75566 7.635 5.911C7.7269 7.26382 8.09731 8.58306 8.723 9.786C8.04036 10.3229 7.27324 10.7426 6.453 11.028C5.74575 9.90325 5.29254 8.63768 5.125 7.31966C4.95746 6.00163 5.07964 4.66292 5.483 3.397C6.29447 2.84025 7.20215 2.43879 8.16 2.213Z" fill="#0E0E0F"/>
</svg>
