<svg width="20" height="20" viewBox="0 0 20 20" fill="none" xmlns="http://www.w3.org/2000/svg">
<path fill-rule="evenodd" clip-rule="evenodd" d="M2 2.2C2 2.09 2.09 2 2.2 2H17.8C17.91 2 18 2.09 18 2.2V10.8H2V2.2ZM2 12.8V14.2C2 14.31 2.09 14.4 2.2 14.4H17.8C17.853 14.4 17.9039 14.3789 17.9414 14.3414C17.9789 14.3039 18 14.253 18 14.2V12.8H2ZM2.2 0C1.61652 0 1.05695 0.231785 0.644365 0.644365C0.231785 1.05695 0 1.61652 0 2.2V14.2C0 14.7835 0.231785 15.3431 0.644365 15.7556C1.05695 16.1682 1.61652 16.4 2.2 16.4H7.2V18H4.6V20H15.4V18H12.8V16.4H17.8C18.3835 16.4 18.9431 16.1682 19.3556 15.7556C19.7682 15.3431 20 14.7835 20 14.2V2.2C20 1.61652 19.7682 1.05695 19.3556 0.644365C18.9431 0.231785 18.3835 0 17.8 0H2.2ZM10.8 16.4H9.2V18H10.8V16.4Z" fill="#0E0E0F"/>
</svg>
