<svg width="20" height="21" viewBox="0 0 20 21" fill="none" xmlns="http://www.w3.org/2000/svg">
<path fill-rule="evenodd" clip-rule="evenodd" d="M8.168 3.832C8.168 3.46967 8.27544 3.11547 8.47675 2.8142C8.67805 2.51292 8.96417 2.27811 9.29892 2.13945C9.63368 2.00079 10.002 1.96451 10.3574 2.0352C10.7128 2.10589 11.0392 2.28037 11.2954 2.53658C11.5516 2.79279 11.7261 3.11922 11.7968 3.47459C11.8675 3.82997 11.8312 4.19832 11.6925 4.53308C11.5539 4.86783 11.3191 5.15395 11.0178 5.35525C10.7165 5.55656 10.3623 5.664 10 5.664C9.73478 5.664 9.48043 5.76936 9.29289 5.95689C9.10536 6.14443 9 6.39878 9 6.664V9.48L1.562 15.2C1.0761 15.5736 0.682549 16.0538 0.411717 16.6036C0.140886 17.1534 2.21064e-05 17.7581 0 18.371V19.006C0 19.2712 0.105357 19.5256 0.292893 19.7131C0.48043 19.9006 0.734784 20.006 1 20.006H19C19.2652 20.006 19.5196 19.9006 19.7071 19.7131C19.8946 19.5256 20 19.2712 20 19.006V18.378C20.0001 17.7627 19.8582 17.1556 19.5853 16.6041C19.3125 16.0525 18.9161 15.5714 18.427 15.198L11 9.528V7.533C11.8953 7.28892 12.6717 6.72839 13.1852 5.95539C13.6987 5.18239 13.9144 4.24939 13.7922 3.32946C13.6701 2.40953 13.2185 1.56511 12.5211 0.952847C11.8238 0.340584 10.928 0.00203513 10 0C8.98369 0 8.00901 0.403727 7.29037 1.12237C6.57173 1.84101 6.168 2.81569 6.168 3.832C6.168 4.09722 6.27336 4.35157 6.46089 4.53911C6.64843 4.72664 6.90278 4.832 7.168 4.832C7.43322 4.832 7.68757 4.72664 7.87511 4.53911C8.06264 4.35157 8.168 4.09722 8.168 3.832ZM2.781 16.786L9.969 11.258L17.214 16.788C17.606 17.0875 17.8734 17.5213 17.965 18.006H2.033C2.12333 17.521 2.38973 17.0865 2.781 16.786Z" fill="#0E0E0F"/>
</svg>
