<svg width="20" height="16" viewBox="0 0 20 16" fill="none" xmlns="http://www.w3.org/2000/svg">
<path fill-rule="evenodd" clip-rule="evenodd" d="M4.797 1.01794C5.64038 0.93264 6.48905 1.11748 7.22057 1.54579C7.95209 1.97409 8.52863 2.62372 8.867 3.40094H11.133C11.4972 2.56405 12.1367 1.87687 12.9452 1.45349C13.7538 1.0301 14.6828 0.895964 15.5781 1.07334C16.4734 1.25072 17.2811 1.72895 17.8672 2.42864C18.4533 3.12833 18.7824 4.0074 18.8 4.91994L19.955 12.3579C20.0405 12.7732 20.0042 13.2043 19.8505 13.5994C19.6968 13.9945 19.4322 14.3367 19.0885 14.585C18.7449 14.8332 18.3368 14.9769 17.9134 14.9987C17.49 15.0205 17.0693 14.9196 16.702 14.7079L16.682 14.6969L11.509 11.4029H8.49L3.317 14.6969L3.297 14.7069C2.92973 14.9185 2.50918 15.0194 2.08592 14.9976C1.66265 14.9758 1.25469 14.8322 0.911085 14.5841C0.567479 14.336 0.302857 13.9939 0.149035 13.599C-0.00478745 13.2041 -0.0412609 12.7731 0.0440007 12.3579L1.199 4.91994C1.21848 3.94264 1.59515 3.00631 2.25786 2.28777C2.92058 1.56923 3.82346 1.11823 4.796 1.01994L4.797 1.01794ZM6.386 3.38794C6.08801 3.1682 5.73488 3.03548 5.36593 3.00458C4.99697 2.97368 4.62668 3.0458 4.29629 3.21291C3.96591 3.38003 3.68839 3.63557 3.49466 3.95108C3.30092 4.26659 3.19857 4.62969 3.199 4.99994V5.07794L2.012 12.7239L2.005 12.7569C1.99672 12.7938 1.99906 12.8323 2.01173 12.8679C2.02441 12.9035 2.04691 12.9347 2.07662 12.9581C2.10634 12.9814 2.14206 12.9958 2.17965 12.9997C2.21724 13.0036 2.25515 12.9967 2.289 12.9799L7.909 9.40194H12.092L17.712 12.9799C17.7458 12.9964 17.7836 13.0031 17.821 12.9991C17.8584 12.9951 17.894 12.9806 17.9235 12.9573C17.9531 12.934 17.9755 12.9029 17.9881 12.8674C18.0008 12.832 18.0031 12.7937 17.995 12.7569L17.988 12.7239L16.801 5.07794V4.99994C16.8015 4.50396 16.6177 4.02549 16.2853 3.65741C15.9528 3.28933 15.4955 3.0579 15.002 3.00805C14.5085 2.95821 14.0141 3.0935 13.6148 3.38766C13.2155 3.68183 12.9397 4.11388 12.841 4.59994L12.678 5.40094H7.322L7.16 4.60094C7.06142 4.11458 6.78555 3.68225 6.386 3.38794ZM5.3 8.00194V7.30194H4.6V6.30194H5.3V5.60194H6.3V6.30194H7V7.30194H6.3V8.00194H5.3ZM14.259 7.70894C14.5242 7.70894 14.7786 7.60358 14.9661 7.41605C15.1536 7.22851 15.259 6.97415 15.259 6.70894C15.259 6.44372 15.1536 6.18937 14.9661 6.00183C14.7786 5.8143 14.5242 5.70894 14.259 5.70894C13.9938 5.70894 13.7394 5.8143 13.5519 6.00183C13.3644 6.18937 13.259 6.44372 13.259 6.70894C13.259 6.97415 13.3644 7.22851 13.5519 7.41605C13.7394 7.60358 13.9938 7.70894 14.259 7.70894Z" fill="#0E0E0F"/>
</svg>
