<svg width="14" height="18" viewBox="0 0 14 18" fill="none" xmlns="http://www.w3.org/2000/svg">
<path fill-rule="evenodd" clip-rule="evenodd" d="M7.84101 3.83881C8.25201 3.27781 9.06001 2.83581 10.122 2.56781C10.4387 2.48895 10.7595 2.42786 11.083 2.38481L11.41 2.3448L11.406 2.59781C11.3899 3.16436 11.3168 3.72786 11.188 4.27981C11.025 4.94881 10.778 5.5018 10.446 5.9038C9.89601 6.5048 8.91801 6.5908 8.23101 6.0638C7.89917 5.80916 7.67496 5.43926 7.60275 5.02725C7.53053 4.61524 7.61556 4.19113 7.84101 3.83881ZM5.49501 8.33381C5.26964 8.57672 4.95884 8.72277 4.62799 8.74124C4.29714 8.7597 3.97202 8.64914 3.72101 8.43281C3.34801 8.10981 3.03101 7.61881 2.78101 6.99981L2.67101 6.70481C2.60079 6.50349 2.53907 6.29931 2.48601 6.09281L2.40401 5.74281L2.72101 5.73781C3.15001 5.74081 3.57901 5.77981 3.98501 5.86481C4.61801 5.99681 5.12401 6.23281 5.47401 6.56981C5.94901 7.04381 5.96401 7.8288 5.49501 8.33381ZM11.956 7.21481C12.535 6.51381 12.903 5.69281 13.131 4.75181C13.365 3.78681 13.436 2.7938 13.406 1.8798L13.381 1.39581L13.362 1.1888L13.263 0.303806L12.246 0.299805C11.3654 0.306499 10.4887 0.416927 9.63401 0.628805C8.16001 0.999805 6.95801 1.65681 6.19001 2.71081C5.87001 3.21081 5.68001 3.75281 5.61601 4.29781C5.22416 4.12329 4.81439 3.99217 4.39401 3.90681C3.44701 3.70881 2.46601 3.69981 1.54901 3.80081L1.31901 3.82881L1.07701 3.8658L0.200012 4.02781L0.269011 5.02381L0.299011 5.29081L0.348011 5.6258L0.381012 5.81581C0.498012 6.47081 0.675012 7.12681 0.926012 7.74881C1.28701 8.64081 1.77101 9.39181 2.41501 9.94681C2.90148 10.3664 3.50041 10.6339 4.13752 10.7162C4.77464 10.7985 5.42189 10.692 5.99901 10.4098L5.99801 14.0758C4.29727 14.2981 2.7184 15.0785 1.50901 16.2948L2.92701 17.7048L3.12201 17.5188C4.21439 16.5178 5.65166 15.9781 7.13294 16.0128C8.61421 16.0474 10.0247 16.6538 11.069 17.7048L12.487 16.2948L12.266 16.0798C11.086 14.9847 9.59428 14.2843 7.99801 14.0758V8.18981C8.68024 8.43673 9.42035 8.47589 10.1248 8.30235C10.8293 8.12881 11.4665 7.75036 11.956 7.21481Z" fill="#0E0E0F"/>
</svg>
