<svg width="22" height="20" viewBox="0 0 22 20" fill="none" xmlns="http://www.w3.org/2000/svg">
<path fill-rule="evenodd" clip-rule="evenodd" d="M10.375 0.219864C10.5524 0.0778605 10.7728 0.000488281 11 0.000488281C11.2272 0.000488281 11.4476 0.0778605 11.625 0.219864L20.625 7.41986L21.405 8.04386L20.156 9.60586L19.376 8.98086L11 2.27986L2.62499 8.97986L1.84399 9.60486L0.593994 8.04286L1.37499 7.41786L10.375 0.217864V0.219864ZM3.39999 18.9999V9.39986H5.39999V17.9999H8.2V15.9999C8.2 15.6322 8.27242 15.2681 8.41313 14.9283C8.55384 14.5886 8.76009 14.28 9.0201 14.02C9.2801 13.76 9.58877 13.5537 9.92848 13.413C10.2682 13.2723 10.6323 13.1999 11 13.1999C11.3677 13.1999 11.7318 13.2723 12.0715 13.413C12.4112 13.5537 12.7199 13.76 12.9799 14.02C13.2399 14.28 13.4461 14.5886 13.5869 14.9283C13.7276 15.2681 13.8 15.6322 13.8 15.9999V17.9999H16.6V9.39986H18.6V19.9999H11.8V15.9999C11.8 15.7877 11.7157 15.5842 11.5657 15.4342C11.4157 15.2841 11.2122 15.1999 11 15.1999C10.7878 15.1999 10.5843 15.2841 10.4343 15.4342C10.2843 15.5842 10.2 15.7877 10.2 15.9999V19.9999H3.39999V18.9999ZM11 5.99986C10.2574 5.99986 9.5452 6.29486 9.0201 6.81996C8.49499 7.34507 8.2 8.05726 8.2 8.79986C8.2 9.54247 8.49499 10.2547 9.0201 10.7798C9.5452 11.3049 10.2574 11.5999 11 11.5999C11.7426 11.5999 12.4548 11.3049 12.9799 10.7798C13.505 10.2547 13.8 9.54247 13.8 8.79986C13.8 8.05726 13.505 7.34507 12.9799 6.81996C12.4548 6.29486 11.7426 5.99986 11 5.99986ZM10.2 8.79986C10.2 8.58769 10.2843 8.38421 10.4343 8.23418C10.5843 8.08415 10.7878 7.99986 11 7.99986C11.2122 7.99986 11.4157 8.08415 11.5657 8.23418C11.7157 8.38421 11.8 8.58769 11.8 8.79986C11.8 9.01204 11.7157 9.21552 11.5657 9.36555C11.4157 9.51558 11.2122 9.59986 11 9.59986C10.7878 9.59986 10.5843 9.51558 10.4343 9.36555C10.2843 9.21552 10.2 9.01204 10.2 8.79986Z" fill="#0E0E0F"/>
</svg>
