<svg width="20" height="19" viewBox="0 0 20 19" fill="none" xmlns="http://www.w3.org/2000/svg">
<path fill-rule="evenodd" clip-rule="evenodd" d="M14 0.5H6L4.5 2.5H3C2.20435 2.5 1.44129 2.81607 0.878679 3.37868C0.31607 3.94129 0 4.70435 0 5.5V15.5C0 16.2956 0.31607 17.0587 0.878679 17.6213C1.44129 18.1839 2.20435 18.5 3 18.5H17C17.7956 18.5 18.5587 18.1839 19.1213 17.6213C19.6839 17.0587 20 16.2956 20 15.5V5.5L19.995 5.324C19.9501 4.56011 19.615 3.84224 19.0583 3.31728C18.5015 2.79233 17.7652 2.49996 17 2.5H15.5L14 0.5ZM13 2.5L14.5 4.5H17C17.2652 4.5 17.5196 4.60536 17.7071 4.79289C17.8946 4.98043 18 5.23478 18 5.5V15.5C18 15.7652 17.8946 16.0196 17.7071 16.2071C17.5196 16.3946 17.2652 16.5 17 16.5H3C2.73478 16.5 2.48043 16.3946 2.29289 16.2071C2.10536 16.0196 2 15.7652 2 15.5V5.5C2 5.23478 2.10536 4.98043 2.29289 4.79289C2.48043 4.60536 2.73478 4.5 3 4.5H5.5L7 2.5H13ZM10 5C8.67392 5 7.40215 5.52678 6.46447 6.46447C5.52678 7.40215 5 8.67392 5 10C5 11.3261 5.52678 12.5979 6.46447 13.5355C7.40215 14.4732 8.67392 15 10 15C11.3261 15 12.5979 14.4732 13.5355 13.5355C14.4732 12.5979 15 11.3261 15 10C15 8.67392 14.4732 7.40215 13.5355 6.46447C12.5979 5.52678 11.3261 5 10 5ZM10 7C10.394 7 10.7841 7.0776 11.1481 7.22836C11.512 7.37913 11.8427 7.6001 12.1213 7.87868C12.3999 8.15726 12.6209 8.48797 12.7716 8.85195C12.9224 9.21593 13 9.60603 13 10C13 10.394 12.9224 10.7841 12.7716 11.1481C12.6209 11.512 12.3999 11.8427 12.1213 12.1213C11.8427 12.3999 11.512 12.6209 11.1481 12.7716C10.7841 12.9224 10.394 13 10 13C9.20435 13 8.44129 12.6839 7.87868 12.1213C7.31607 11.5587 7 10.7956 7 10C7 9.20435 7.31607 8.44129 7.87868 7.87868C8.44129 7.31607 9.20435 7 10 7Z" fill="#0E0E0F"/>
</svg>
