<svg width="20" height="20" viewBox="0 0 20 20" fill="none" xmlns="http://www.w3.org/2000/svg">
<path fill-rule="evenodd" clip-rule="evenodd" d="M17.886 0.734941L19.31 0.689941L19.265 2.11394L12.431 8.94794L14.518 11.0349L13.104 12.4489L13.086 12.4309C12.9077 12.2526 12.6658 12.1524 12.4135 12.1524C12.1613 12.1524 11.9194 12.2526 11.741 12.4309C11.5627 12.6093 11.4625 12.8512 11.4625 13.1034C11.4625 13.3557 11.5627 13.5976 11.741 13.7759L11.724 13.7929L11.742 13.8109L6.61302 18.9399C6.28801 19.265 5.90216 19.5228 5.47749 19.6987C5.05283 19.8747 4.59768 19.9652 4.13802 19.9652C3.67836 19.9652 3.22321 19.8747 2.79854 19.6987C2.37388 19.5228 1.98803 19.265 1.66302 18.9399L1.06102 18.3369C0.735977 18.0119 0.478136 17.6261 0.302222 17.2014C0.126308 16.7768 0.0357666 16.3216 0.0357666 15.8619C0.0357666 15.4023 0.126308 14.9471 0.302222 14.5225C0.478136 14.0978 0.735977 13.712 1.06102 13.3869L6.19002 8.25894L6.20702 8.27594L6.22402 8.25794C6.31227 8.34619 6.41703 8.41619 6.53234 8.46395C6.64764 8.51171 6.77122 8.53629 6.89602 8.53629C7.02082 8.53629 7.1444 8.51171 7.2597 8.46395C7.375 8.41619 7.47977 8.34619 7.56802 8.25794C7.65627 8.16969 7.72627 8.06493 7.77403 7.94963C7.82179 7.83432 7.84637 7.71074 7.84637 7.58594C7.84637 7.46114 7.82179 7.33756 7.77403 7.22226C7.72627 7.10696 7.65627 7.00219 7.56802 6.91394L7.55202 6.89694L8.96602 5.48194L11.052 7.56894L17.886 0.734941ZM11.11 10.4549L9.54402 8.88894C9.29001 9.4074 8.88912 9.8397 8.39125 10.132C7.89339 10.4243 7.32054 10.5638 6.74402 10.5329L2.47502 14.8019C2.19412 15.0832 2.03634 15.4644 2.03634 15.8619C2.03634 16.2594 2.19412 16.6407 2.47502 16.9219L3.07702 17.5249C3.21632 17.6643 3.38172 17.7749 3.56377 17.8503C3.74582 17.9258 3.94096 17.9646 4.13802 17.9646C4.33508 17.9646 4.53022 17.9258 4.71227 17.8503C4.89432 17.7749 5.05972 17.6643 5.19902 17.5249L9.46702 13.2569C9.4357 12.6802 9.57479 12.107 9.86695 11.6087C10.1591 11.1105 10.5914 10.7092 11.11 10.4549ZM3.43102 16.5689C3.24355 16.3814 3.13823 16.1271 3.13823 15.8619C3.13823 15.5968 3.24355 15.3425 3.43102 15.1549L6.87902 11.7069C6.97186 11.614 7.0821 11.5403 7.20343 11.49C7.32476 11.4397 7.45482 11.4138 7.58617 11.4137C7.71751 11.4137 7.84759 11.4395 7.96895 11.4897C8.09032 11.54 8.20061 11.6136 8.29352 11.7064C8.38643 11.7993 8.46014 11.9095 8.51045 12.0309C8.56076 12.1522 8.58667 12.2822 8.58672 12.4136C8.58677 12.5449 8.56094 12.675 8.51072 12.7964C8.4605 12.9177 8.38686 13.028 8.29402 13.1209L4.84502 16.5689C4.65749 16.7564 4.40318 16.8617 4.13802 16.8617C3.87286 16.8617 3.61855 16.7564 3.43102 16.5689Z" fill="#0E0E0F"/>
</svg>
