<svg width="14" height="20" viewBox="0 0 14 20" fill="none" xmlns="http://www.w3.org/2000/svg">
<path fill-rule="evenodd" clip-rule="evenodd" d="M11 0H3C1.346 0 0 1.346 0 3V17C0 18.654 1.346 20 3 20H11C12.654 20 14 18.654 14 17V3C14 1.346 12.654 0 11 0ZM12 17C12 17.552 11.551 18 11 18H3C2.449 18 2 17.552 2 17V3C2 2.449 2.449 2 3 2H4.216L5.008 3H9.008L9.784 2H11C11.551 2 12 2.449 12 3V17ZM7 17C7.39782 17 7.77936 16.842 8.06066 16.5607C8.34196 16.2794 8.5 15.8978 8.5 15.5C8.5 15.1022 8.34196 14.7206 8.06066 14.4393C7.77936 14.158 7.39782 14 7 14C6.60218 14 6.22064 14.158 5.93934 14.4393C5.65804 14.7206 5.5 15.1022 5.5 15.5C5.5 15.8978 5.65804 16.2794 5.93934 16.5607C6.22064 16.842 6.60218 17 7 17Z" fill="#0E0E0F"/>
</svg>
