<svg width="20" height="17" viewBox="0 0 20 17" fill="none" xmlns="http://www.w3.org/2000/svg">
<path fill-rule="evenodd" clip-rule="evenodd" d="M3.042 0.712999C3.10374 0.506916 3.2303 0.326239 3.40288 0.197794C3.57546 0.0693488 3.78487 -1.49316e-05 4 2.41096e-09H14C14.2151 -1.49316e-05 14.4245 0.0693488 14.5971 0.197794C14.7697 0.326239 14.8963 0.506916 14.958 0.712999L16.246 5.007C17.2625 5.06963 18.2167 5.5176 18.9143 6.25956C19.6119 7.00153 20.0001 7.98162 20 9V13C20 13.2652 19.8946 13.5196 19.7071 13.7071C19.5196 13.8946 19.2652 14 19 14H17.83C17.6228 14.5864 17.2385 15.094 16.7303 15.4525C16.222 15.811 15.615 16.0027 14.993 16.0012C14.3711 15.9996 13.765 15.8049 13.2585 15.4439C12.7521 15.0829 12.3703 14.5734 12.166 13.986C12.112 13.996 12.056 14 12 14H7.83C7.6234 14.5855 7.24026 15.0926 6.7334 15.4512C6.22654 15.8099 5.62091 16.0024 5 16.0024C4.37909 16.0024 3.77346 15.8099 3.2666 15.4512C2.75974 15.0926 2.3766 14.5855 2.17 14H1C0.734784 14 0.48043 13.8946 0.292893 13.7071C0.105357 13.5196 7.86991e-08 13.2652 7.86991e-08 13V7C-0.000136584 6.51259 0.177718 6.04191 0.500148 5.6764C0.822577 5.31088 1.26739 5.07568 1.751 5.015L3.042 0.712999ZM13.256 2L14.156 5H10V2H13.256ZM8 2V5H3.844L4.744 2H8ZM2 7H16C16.3986 6.99981 16.7881 7.1187 17.1186 7.34142C17.4491 7.56414 17.7055 7.88053 17.855 8.25H17C16.8011 8.25 16.6103 8.32902 16.4697 8.46967C16.329 8.61032 16.25 8.80109 16.25 9C16.25 9.19891 16.329 9.38968 16.4697 9.53033C16.6103 9.67098 16.8011 9.75 17 9.75H18V12H17.83C17.6228 11.4136 17.2385 10.906 16.7303 10.5475C16.222 10.189 15.615 9.99731 14.993 9.99884C14.3711 10.0004 13.765 10.1951 13.2585 10.5561C12.7521 10.9171 12.3703 11.4266 12.166 12.014C12.1111 12.0048 12.0556 12.0001 12 12H7.83C7.6234 11.4145 7.24026 10.9074 6.7334 10.5488C6.22654 10.1901 5.62091 9.99755 5 9.99755C4.37909 9.99755 3.77346 10.1901 3.2666 10.5488C2.75974 10.9074 2.3766 11.4145 2.17 12H2V9.75H3C3.19891 9.75 3.38968 9.67098 3.53033 9.53033C3.67098 9.38968 3.75 9.19891 3.75 9C3.75 8.80109 3.67098 8.61032 3.53033 8.46967C3.38968 8.32902 3.19891 8.25 3 8.25H2V7ZM6 13C6 12.7348 5.89464 12.4804 5.70711 12.2929C5.51957 12.1054 5.26522 12 5 12C4.73478 12 4.48043 12.1054 4.29289 12.2929C4.10536 12.4804 4 12.7348 4 13C4 13.2652 4.10536 13.5196 4.29289 13.7071C4.48043 13.8946 4.73478 14 5 14C5.26522 14 5.51957 13.8946 5.70711 13.7071C5.89464 13.5196 6 13.2652 6 13ZM15 12C14.7348 12 14.4804 12.1054 14.2929 12.2929C14.1054 12.4804 14 12.7348 14 13C14 13.2652 14.1054 13.5196 14.2929 13.7071C14.4804 13.8946 14.7348 14 15 14C15.2652 14 15.5196 13.8946 15.7071 13.7071C15.8946 13.5196 16 13.2652 16 13C16 12.7348 15.8946 12.4804 15.7071 12.2929C15.5196 12.1054 15.2652 12 15 12Z" fill="#0E0E0F"/>
</svg>
