<svg width="20" height="20" viewBox="0 0 20 20" fill="none" xmlns="http://www.w3.org/2000/svg">
<path fill-rule="evenodd" clip-rule="evenodd" d="M11.6 7.41597V15.801H6V0.599969H11.6V1.48097L14.143 0.614968L15.089 0.292969L15.412 1.23897L19.465 13.135L19.787 14.081L18.84 14.404L15.433 15.564L14.486 15.887L14.164 14.941L11.6 7.41597ZM15.734 13.35L12.327 3.34797L13.841 2.83197L17.249 12.834L15.734 13.35ZM1 0.599969H0V15.8H5.6V0.599969H1ZM2 13.8V2.59997H3.6V13.8H2ZM1 18C0.734784 18 0.48043 18.1053 0.292893 18.2929C0.105357 18.4804 0 18.7348 0 19C0 19.2652 0.105357 19.5195 0.292893 19.7071C0.48043 19.8946 0.734784 20 1 20H19C19.2652 20 19.5196 19.8946 19.7071 19.7071C19.8946 19.5195 20 19.2652 20 19C20 18.7348 19.8946 18.4804 19.7071 18.2929C19.5196 18.1053 19.2652 18 19 18H1ZM8 2.59997V13.8H9.6V2.59997H8Z" fill="#0E0E0F"/>
</svg>
